<svg width="24" height="24" viewBox="0 0 24 24" fill="none" xmlns="http://www.w3.org/2000/svg">
<path fill-rule="evenodd" clip-rule="evenodd" d="M17.0418 6.68208C15.7071 5.28886 13.8303 4.42285 11.75 4.42285C7.70347 4.42285 4.4231 7.70323 4.4231 11.7498C4.4231 15.7963 7.70347 19.0767 11.75 19.0767C15.7966 19.0767 19.0769 15.7963 19.0769 11.7498H20.5769C20.5769 16.6248 16.625 20.5767 11.75 20.5767C6.87504 20.5767 2.9231 16.6248 2.9231 11.7498C2.9231 6.8748 6.87504 2.92285 11.75 2.92285C14.256 2.92285 16.5191 3.96813 18.1249 5.64444C18.4747 6.00955 18.7935 6.40474 19.0769 6.82581V3.67285C19.0769 3.25864 19.4127 2.92285 19.8269 2.92285C20.2412 2.92285 20.5769 3.25864 20.5769 3.67285V9.05747V9.80747H19.8269H13.5449C13.1307 9.80747 12.7949 9.47168 12.7949 9.05747C12.7949 8.64325 13.1307 8.30747 13.5449 8.30747H18.2198C17.9023 7.71221 17.5049 7.16559 17.0418 6.68208Z" fill="black"/>
</svg>
