<svg width="24" height="24" viewBox="0 0 24 24" fill="none" xmlns="http://www.w3.org/2000/svg">
<path fill-rule="evenodd" clip-rule="evenodd" d="M10.4798 1.00021L10.371 1.00011C9.85842 0.99934 9.40851 0.998668 9.00762 1.15634C8.65709 1.2942 8.34677 1.51786 8.10513 1.80682C7.82878 2.13727 7.68715 2.56431 7.52577 3.05085L7.49147 3.1541L7.20943 4.00021H3.75H1.75C1.33579 4.00021 1 4.336 1 4.75021C1 5.16443 1.33579 5.50021 1.75 5.50021H3.04282L3.59024 14.8063L3.59177 14.8324C3.65335 15.8792 3.70168 16.7009 3.78388 17.3649C3.8676 18.0411 3.99147 18.6031 4.22666 19.1224C4.85057 20.5 5.99212 21.5764 7.40402 22.1183C7.93623 22.3226 8.50449 22.4133 9.1845 22.4572C9.85218 22.5002 10.6753 22.5002 11.7239 22.5002H11.75H11.7761C12.8247 22.5002 13.6478 22.5002 14.3155 22.4572C14.9955 22.4133 15.5638 22.3226 16.096 22.1183C17.5079 21.5764 18.6494 20.5 19.2733 19.1224C19.5085 18.6031 19.6324 18.0411 19.7161 17.3649C19.7983 16.7009 19.8467 15.8792 19.9082 14.8324L19.9098 14.8063L20.4572 5.50021H21.75C22.1642 5.50021 22.5 5.16443 22.5 4.75021C22.5 4.336 22.1642 4.00021 21.75 4.00021H19.75H16.2906L16.0085 3.1541L15.9742 3.05084C15.8129 2.5643 15.6712 2.13727 15.3949 1.80682C15.1532 1.51786 14.8429 1.2942 14.4924 1.15634C14.0915 0.998668 13.6416 0.99934 13.129 1.00011L13.0202 1.00021H10.4798ZM15.7325 5.50021C15.7441 5.50048 15.7557 5.50049 15.7673 5.50021H18.9546L18.4123 14.7183C18.3489 15.7967 18.303 16.5702 18.2275 17.1806C18.1528 17.7842 18.0541 18.1787 17.9069 18.5036C17.4458 19.5218 16.602 20.3174 15.5585 20.718C15.2256 20.8457 14.8259 20.9211 14.2189 20.9603C13.6052 20.9999 12.8303 21.0002 11.75 21.0002C10.6697 21.0002 9.89481 20.9999 9.28105 20.9603C8.67408 20.9211 8.27444 20.8457 7.94154 20.718C6.89797 20.3174 6.05421 19.5218 5.59306 18.5036C5.44595 18.1787 5.34724 17.7842 5.27252 17.1806C5.19695 16.5702 5.15109 15.7967 5.08765 14.7183L4.54541 5.50021H7.7327C7.74433 5.50049 7.75594 5.50048 7.76751 5.50021H15.7325ZM14.7094 4.00021L14.5855 3.62844C14.3686 2.97761 14.3133 2.85174 14.2442 2.76908C14.1637 2.67276 14.0602 2.59821 13.9434 2.55225C13.8431 2.51282 13.7062 2.50021 13.0202 2.50021H10.4798C9.79379 2.50021 9.65691 2.51282 9.55663 2.55225C9.43979 2.59821 9.33635 2.67276 9.2558 2.76908C9.18668 2.85174 9.13144 2.97761 8.91449 3.62844L8.79057 4.00021H14.7094ZM10.5 9.75021C10.5 9.336 10.1642 9.00021 9.75 9.00021C9.33579 9.00021 9 9.336 9 9.75021V16.7502C9 17.1644 9.33579 17.5002 9.75 17.5002C10.1642 17.5002 10.5 17.1644 10.5 16.7502V9.75021ZM13.75 9.00021C14.1642 9.00021 14.5 9.336 14.5 9.75021V16.7502C14.5 17.1644 14.1642 17.5002 13.75 17.5002C13.3358 17.5002 13 17.1644 13 16.7502V9.75021C13 9.336 13.3358 9.00021 13.75 9.00021Z" fill="black"/>
</svg>
